<?xml version="1.0" encoding="utf-8" ?>
<svg baseProfile="full" height="100%" version="1.1" width="100%" xmlns="http://www.w3.org/2000/svg" xmlns:ev="http://www.w3.org/2001/xml-events" xmlns:xlink="http://www.w3.org/1999/xlink"><defs /><g fill="white" id="bg"><rect fill="white" height="7cm" width="13cm" x="0" y="0" /></g><g><rect fill="#903E18" height="1cm" width="1cm" x="9cm" y="0cm" /></g><g><rect fill="#E8AD00" height="1cm" width="1cm" x="8cm" y="1cm" /></g><g><rect fill="#E8AD00" height="1cm" width="1cm" x="9cm" y="1cm" /></g><g><rect fill="#903E18" height="1cm" width="1cm" x="10cm" y="1cm" /></g><g><rect fill="#E8AD00" height="1cm" width="1cm" x="6cm" y="2cm" /></g><g><rect fill="#E8AD00" height="1cm" width="1cm" x="7cm" y="2cm" /></g><g><rect fill="#E80000" height="1cm" width="1cm" x="8cm" y="2cm" /></g><g><rect fill="#187300" height="1cm" width="1cm" x="9cm" y="2cm" /></g><g><rect fill="#FFDE0D" height="1cm" width="1cm" x="10cm" y="2cm" /></g><g><rect fill="#903E18" height="1cm" width="1cm" x="11cm" y="2cm" /></g><g><rect fill="#E8AD00" height="1cm" width="1cm" x="4cm" y="3cm" /></g><g><rect fill="#187300" height="1cm" width="1cm" x="5cm" y="3cm" /></g><g><rect fill="#E8AD00" height="1cm" width="1cm" x="6cm" y="3cm" /></g><g><rect fill="#E80000" height="1cm" width="1cm" x="7cm" y="3cm" /></g><g><rect fill="#E80000" height="1cm" width="1cm" x="8cm" y="3cm" /></g><g><rect fill="#E80000" height="1cm" width="1cm" x="9cm" y="3cm" /></g><g><rect fill="#E8AD00" height="1cm" width="1cm" x="10cm" y="3cm" /></g><g><rect fill="#903E18" height="1cm" width="1cm" x="11cm" y="3cm" /></g><g><rect fill="#FFDE0D" height="1cm" width="1cm" x="2cm" y="4cm" /></g><g><rect fill="#E8AD00" height="1cm" width="1cm" x="3cm" y="4cm" /></g><g><rect fill="#E8AD00" height="1cm" width="1cm" x="4cm" y="4cm" /></g><g><rect fill="#FFDE0D" height="1cm" width="1cm" x="5cm" y="4cm" /></g><g><rect fill="#E8AD00" height="1cm" width="1cm" x="6cm" y="4cm" /></g><g><rect fill="#187300" height="1cm" width="1cm" x="7cm" y="4cm" /></g><g><rect fill="#E80000" height="1cm" width="1cm" x="8cm" y="4cm" /></g><g><rect fill="#E8AD00" height="1cm" width="1cm" x="9cm" y="4cm" /></g><g><rect fill="#FFDE0D" height="1cm" width="1cm" x="10cm" y="4cm" /></g><g><rect fill="#E8AD00" height="1cm" width="1cm" x="11cm" y="4cm" /></g><g><rect fill="#903E18" height="1cm" width="1cm" x="12cm" y="4cm" /></g><g><rect fill="#E8AD00" height="1cm" width="1cm" x="0cm" y="5cm" /></g><g><rect fill="#E8AD00" height="1cm" width="1cm" x="1cm" y="5cm" /></g><g><rect fill="#E8AD00" height="1cm" width="1cm" x="2cm" y="5cm" /></g><g><rect fill="#187300" height="1cm" width="1cm" x="3cm" y="5cm" /></g><g><rect fill="#FFDE0D" height="1cm" width="1cm" x="4cm" y="5cm" /></g><g><rect fill="#187300" height="1cm" width="1cm" x="5cm" y="5cm" /></g><g><rect fill="#E8AD00" height="1cm" width="1cm" x="6cm" y="5cm" /></g><g><rect fill="#E8AD00" height="1cm" width="1cm" x="7cm" y="5cm" /></g><g><rect fill="#FFDE0D" height="1cm" width="1cm" x="8cm" y="5cm" /></g><g><rect fill="#E8AD00" height="1cm" width="1cm" x="9cm" y="5cm" /></g><g><rect fill="#187300" height="1cm" width="1cm" x="10cm" y="5cm" /></g><g><rect fill="#E8AD00" height="1cm" width="1cm" x="11cm" y="5cm" /></g><g><rect fill="#903E18" height="1cm" width="1cm" x="12cm" y="5cm" /></g><g><rect fill="#FFDE0D" height="1cm" width="1cm" x="0cm" y="6cm" /></g><g><rect fill="#FFDE0D" height="1cm" width="1cm" x="1cm" y="6cm" /></g><g><rect fill="#FFDE0D" height="1cm" width="1cm" x="2cm" y="6cm" /></g><g><rect fill="#FFDE0D" height="1cm" width="1cm" x="3cm" y="6cm" /></g><g><rect fill="#FFDE0D" height="1cm" width="1cm" x="4cm" y="6cm" /></g><g><rect fill="#FFDE0D" height="1cm" width="1cm" x="5cm" y="6cm" /></g><g><rect fill="#FFDE0D" height="1cm" width="1cm" x="6cm" y="6cm" /></g><g><rect fill="#FFDE0D" height="1cm" width="1cm" x="7cm" y="6cm" /></g><g><rect fill="#FFDE0D" height="1cm" width="1cm" x="8cm" y="6cm" /></g><g><rect fill="#FFDE0D" height="1cm" width="1cm" x="9cm" y="6cm" /></g><g><rect fill="#FFDE0D" height="1cm" width="1cm" x="10cm" y="6cm" /></g><g><rect fill="#FFDE0D" height="1cm" width="1cm" x="11cm" y="6cm" /></g><g><rect fill="#FFDE0D" height="1cm" width="1cm" x="12cm" y="6cm" /></g><g id="hl" stroke="black"><line x1="0" x2="13cm" y1="0cm" y2="0cm" /><line x1="0" x2="13cm" y1="1cm" y2="1cm" /><line x1="0" x2="13cm" y1="2cm" y2="2cm" /><line x1="0" x2="13cm" y1="3cm" y2="3cm" /><line x1="0" x2="13cm" y1="4cm" y2="4cm" /><line x1="0" x2="13cm" y1="5cm" y2="5cm" /><line x1="0" x2="13cm" y1="6cm" y2="6cm" /><line x1="0" x2="13cm" y1="7cm" y2="7cm" /></g><g id="vl" stroke="black"><line x1="0cm" x2="0cm" y1="0" y2="7cm" /><line x1="1cm" x2="1cm" y1="0" y2="7cm" /><line x1="2cm" x2="2cm" y1="0" y2="7cm" /><line x1="3cm" x2="3cm" y1="0" y2="7cm" /><line x1="4cm" x2="4cm" y1="0" y2="7cm" /><line x1="5cm" x2="5cm" y1="0" y2="7cm" /><line x1="6cm" x2="6cm" y1="0" y2="7cm" /><line x1="7cm" x2="7cm" y1="0" y2="7cm" /><line x1="8cm" x2="8cm" y1="0" y2="7cm" /><line x1="9cm" x2="9cm" y1="0" y2="7cm" /><line x1="10cm" x2="10cm" y1="0" y2="7cm" /><line x1="11cm" x2="11cm" y1="0" y2="7cm" /><line x1="12cm" x2="12cm" y1="0" y2="7cm" /><line x1="13cm" x2="13cm" y1="0" y2="7cm" /></g></svg>